<?xml version="1.0" standalone="no"?>
<!DOCTYPE svg PUBLIC "-//W3C//DTD SVG 20010904//EN"
 "http://www.w3.org/TR/2001/REC-SVG-20010904/DTD/svg10.dtd">
<svg version="1.0" xmlns="http://www.w3.org/2000/svg"
 width="1920.000000pt" height="1920.000000pt" viewBox="0 0 1920.000000 1920.000000"
 preserveAspectRatio="xMidYMid meet">
<metadata>
Created by potrace 1.16, written by Peter Selinger 2001-2019
</metadata>
<g transform="translate(0.000000,1920.000000) scale(0.100000,-0.100000)"
fill="#000000" stroke="none">
<path d="M0 9600 l0 -9600 9600 0 9600 0 0 9600 0 9600 -9600 0 -9600 0 0
-9600z m11364 6761 l28 -28 -12 -304 c-12 -303 -9 -657 10 -1022 11 -208 1
-336 -36 -464 -47 -164 -129 -297 -255 -419 -125 -119 -272 -205 -461 -269
-54 -18 -101 -35 -103 -37 -3 -2 -16 -66 -30 -141 -85 -463 -271 -989 -527
-1489 -35 -71 -62 -128 -60 -128 3 0 53 36 111 79 264 197 542 357 733 423 85
30 103 33 218 33 117 0 129 -2 182 -28 211 -103 194 -377 -34 -537 -107 -75
-176 -95 -333 -95 -178 0 -225 23 -225 110 0 85 28 99 200 100 127 0 138 2
192 28 99 49 166 154 124 195 -26 27 -182 23 -266 -7 -283 -98 -719 -401
-1039 -722 -203 -203 -321 -350 -549 -685 -82 -120 -288 -417 -457 -659 -489
-697 -719 -1047 -931 -1415 -97 -169 -296 -561 -289 -568 3 -3 40 28 83 70
301 294 696 567 1063 735 167 76 428 166 482 166 83 0 129 -99 80 -170 -97
-137 -223 -485 -334 -928 -79 -314 -131 -481 -196 -633 -188 -441 -486 -709
-968 -870 -147 -49 -302 -89 -310 -80 -10 9 -48 188 -42 194 2 3 47 16 98 30
235 62 441 147 582 241 108 71 239 203 313 314 128 193 207 404 318 850 71
286 141 515 205 672 47 115 58 112 -123 31 -747 -334 -1301 -965 -1539 -1754
-70 -230 -105 -453 -114 -710 -7 -211 5 -379 43 -592 239 -1376 1105 -2312
2523 -2729 74 -21 136 -38 138 -36 1 2 -48 35 -110 74 -185 117 -315 220 -452
357 -149 150 -240 272 -324 437 -111 217 -161 422 -161 659 0 571 309 1014
819 1174 164 52 244 61 521 60 305 0 358 -7 940 -124 560 -113 845 -147 985
-121 129 24 239 100 290 201 65 128 74 264 35 560 -13 108 -20 195 -16 228 16
132 81 257 211 402 80 89 105 135 105 190 0 33 -7 48 -41 85 -22 24 -63 58
-90 75 -58 38 -77 83 -55 134 17 41 29 50 111 81 95 36 188 89 219 126 43 51
36 80 -44 164 -174 184 -236 372 -168 515 47 98 105 147 298 250 204 109 299
181 337 254 24 47 13 123 -27 187 -19 30 -158 180 -310 334 -293 297 -362 378
-473 545 -217 330 -284 626 -227 1013 30 203 68 563 80 751 33 512 -84 1108
-305 1545 -59 119 -40 195 52 208 60 8 86 -13 132 -105 193 -384 302 -809 331
-1295 16 -255 -9 -605 -76 -1082 -53 -372 -13 -594 159 -873 102 -167 218
-303 495 -580 352 -352 400 -426 390 -605 -6 -101 -35 -165 -115 -248 -71 -74
-165 -139 -333 -229 -212 -113 -242 -143 -220 -228 18 -74 47 -119 134 -212
46 -49 92 -106 102 -127 27 -53 26 -193 0 -243 -35 -66 -78 -110 -155 -161
l-78 -52 33 -49 c44 -64 57 -116 52 -203 -5 -101 -52 -192 -163 -315 -92 -101
-140 -184 -150 -260 -4 -26 0 -98 9 -160 41 -302 41 -444 -1 -590 -44 -154
-165 -305 -299 -373 -226 -114 -459 -103 -1259 58 -552 111 -615 119 -900 119
-195 1 -256 -2 -325 -17 -256 -55 -451 -168 -586 -340 -74 -94 -157 -267 -190
-392 -20 -76 -27 -134 -31 -240 -6 -168 14 -283 73 -422 199 -467 634 -877
1264 -1193 76 -38 146 -79 154 -92 20 -29 20 -92 0 -123 -27 -42 -68 -48 -206
-30 -792 102 -1548 423 -2121 900 -570 475 -963 1127 -1141 1896 -83 358 -111
634 -103 1021 6 272 16 380 58 618 26 145 36 437 20 576 -45 388 -206 812
-433 1141 -165 239 -395 453 -558 520 -99 41 -122 26 -96 -60 45 -150 206
-290 409 -357 71 -23 104 -48 114 -88 9 -36 -9 -83 -40 -106 -39 -29 -95 -25
-192 12 -205 80 -376 225 -453 382 -114 233 -45 429 157 447 144 13 327 -86
543 -295 134 -129 213 -223 310 -368 167 -246 313 -575 388 -874 12 -47 26
-102 31 -124 l10 -38 59 143 c147 364 346 744 623 1189 86 138 360 548 598
895 296 432 409 818 396 1360 -6 239 -23 370 -76 576 -47 181 -166 499 -181
482 -3 -4 -17 -53 -30 -108 -49 -213 -122 -388 -262 -625 -120 -204 -150 -261
-202 -378 -183 -414 -168 -694 53 -1002 43 -60 61 -94 60 -115 0 -43 -39 -117
-71 -134 -25 -14 -29 -14 -55 5 -51 38 -164 197 -218 309 -82 166 -100 246
-100 440 0 143 3 171 29 269 54 208 151 424 316 701 131 218 192 363 245 574
47 190 58 304 53 569 -4 193 -3 241 7 230 18 -19 204 -327 273 -452 170 -305
296 -672 348 -1018 24 -160 30 -524 10 -692 -9 -76 -16 -144 -16 -150 0 -6 70
94 154 222 592 895 928 1634 1076 2367 16 83 30 155 30 161 0 7 -17 15 -37 19
-163 30 -414 159 -542 278 -149 140 -262 363 -290 572 -5 44 -13 267 -16 495
-5 430 -13 598 -41 906 -9 100 -14 193 -10 208 8 31 59 66 97 66 14 0 46 -14
70 -32 81 -58 253 -214 381 -346 l126 -131 13 32 c68 174 240 426 315 462 54
25 85 11 172 -79 85 -88 163 -200 214 -307 18 -38 35 -69 38 -69 3 0 44 48 91
108 126 157 302 346 341 366 43 21 85 13 122 -23z"/>
<path d="M10393 16062 c-91 -138 -145 -259 -159 -359 -6 -47 -4 -51 49 -128
30 -44 81 -128 114 -187 l59 -106 48 103 c26 57 73 148 103 202 43 78 53 104
48 129 -14 76 -194 395 -222 394 -5 0 -22 -22 -40 -48z"/>
<path d="M9615 15998 c10 -31 27 -459 35 -858 9 -491 11 -506 93 -665 77 -149
249 -294 437 -368 88 -35 158 -53 167 -43 4 4 8 123 8 264 0 277 -8 341 -65
567 -93 369 -297 734 -568 1017 -89 92 -117 115 -107 86z"/>
<path d="M11134 15968 c-134 -145 -295 -412 -383 -635 -116 -293 -156 -510
-171 -942 -5 -141 -12 -277 -16 -300 -7 -42 -6 -43 17 -36 58 16 250 119 312
166 83 62 163 160 210 254 74 147 91 269 76 537 -6 101 -12 364 -12 585 -1
222 -2 403 -3 403 0 0 -14 -15 -30 -32z"/>
</g>
</svg>
